<svg width="142" height="45" viewBox="0 0 142 45" fill="none" xmlns="http://www.w3.org/2000/svg">
<path d="M83.1398 17.4392H83.6748V22.0139H83.1398V17.4392Z" fill="#1D51A3"/>
<path d="M89.0641 17.4392H89.5885V22.0829H89.348L86.2094 18.4465V22.0139H85.6887V17.4392H85.9254L89.0641 21.0787V17.4392Z" fill="#1D51A3"/>
<path d="M93.018 22.0996C92.6395 22.0996 92.2804 22.0195 91.9417 21.8592C91.6031 21.6988 91.3297 21.4733 91.1209 21.1818V21.1408L91.467 20.8587H91.5105C91.7 21.1017 91.9274 21.2912 92.1934 21.4273C92.4593 21.5634 92.7234 21.6317 92.9856 21.6317C93.3374 21.6317 93.6176 21.5578 93.8251 21.4099C94.0327 21.262 94.1365 21.0737 94.1365 20.8444C94.1365 20.7139 94.1116 20.6015 94.0619 20.5076C94.0122 20.4138 93.9246 20.3299 93.7997 20.2566C93.6748 20.1833 93.5666 20.1286 93.4759 20.0913C93.3852 20.0546 93.2336 20.0031 93.0223 19.9366C92.811 19.8701 92.6557 19.8185 92.5563 19.7819C92.3866 19.7197 92.2505 19.6644 92.1486 19.6153C92.0467 19.5662 91.9268 19.4948 91.7901 19.4003C91.6528 19.3065 91.5496 19.1903 91.4806 19.0517C91.4117 18.9132 91.3769 18.7553 91.3769 18.5788C91.3769 18.2216 91.5235 17.9276 91.8174 17.6971C92.1114 17.4666 92.4935 17.3516 92.9645 17.3516C93.6511 17.3516 94.1843 17.5865 94.5627 18.0563V18.0973L94.2315 18.3862H94.188C93.8649 18.0059 93.4573 17.8158 92.9645 17.8158C92.6613 17.8158 92.4127 17.8817 92.2201 18.0134C92.0268 18.1451 91.9305 18.3166 91.9305 18.5273C91.9305 18.7379 92.0063 18.8908 92.158 19.0001C92.3096 19.1089 92.547 19.2195 92.8701 19.332C92.9353 19.355 93.0378 19.3898 93.1758 19.437C93.3144 19.4842 93.4219 19.5203 93.4983 19.5451C93.5747 19.5706 93.6741 19.6085 93.7966 19.6601C93.919 19.7116 94.0165 19.7595 94.088 19.8042C94.1594 19.849 94.2377 19.908 94.3229 19.9813C94.408 20.0546 94.4739 20.1286 94.5211 20.2032C94.5683 20.2777 94.6081 20.3691 94.6392 20.4778C94.6709 20.5866 94.6864 20.7015 94.6864 20.8233C94.6864 21.2079 94.5329 21.5168 94.2259 21.7498C93.919 21.9822 93.5163 22.0984 93.0186 22.0984L93.018 22.0996Z" fill="#1D51A3"/>
<path d="M97.7952 17.8891V22.0133H97.2602V17.8891H95.6508V17.4386H99.4083V17.8891H97.7952Z" fill="#1D51A3"/>
<path d="M100.817 17.4392H101.352V22.0139H100.817V17.4392Z" fill="#1D51A3"/>
<path d="M104.906 17.8891V22.0133H104.371V17.8891H102.762V17.4386H106.519V17.8891H104.906Z" fill="#1D51A3"/>
<path d="M107.859 17.4392H108.398V20.2131C108.398 20.6394 108.535 20.9824 108.807 21.2427C109.081 21.5031 109.441 21.633 109.887 21.633C110.334 21.633 110.695 21.5031 110.969 21.2427C111.243 20.983 111.38 20.6394 111.38 20.2131V17.4392H111.901V20.2268C111.901 20.7904 111.717 21.2434 111.349 21.5864C110.981 21.9288 110.494 22.1003 109.887 22.1003C109.28 22.1003 108.79 21.9288 108.418 21.5864C108.045 21.244 107.859 20.791 107.859 20.2268V17.4392H107.859Z" fill="#1D51A3"/>
<path d="M115.389 17.8891V22.0133H114.854V17.8891H113.244V17.4386H117.002V17.8891H115.389Z" fill="#1D51A3"/>
<path d="M122.17 21.4192C121.681 21.8728 121.074 22.0996 120.348 22.0996C119.622 22.0996 119.014 21.8728 118.523 21.4192C118.033 20.9656 117.788 20.4008 117.788 19.7247C117.788 19.0486 118.033 18.4844 118.523 18.032C119.014 17.5797 119.622 17.3535 120.348 17.3535C121.074 17.3535 121.681 17.5797 122.17 18.032C122.659 18.4844 122.904 19.0486 122.904 19.7247C122.904 20.4008 122.659 20.9656 122.17 21.4192ZM118.908 21.0942C119.29 21.4528 119.77 21.6323 120.347 21.6323C120.923 21.6323 121.403 21.4534 121.787 21.0942C122.17 20.7357 122.362 20.2796 122.362 19.7266C122.362 19.1735 122.17 18.7168 121.787 18.357C121.404 17.9972 120.923 17.8177 120.347 17.8177C119.77 17.8177 119.291 17.9979 118.908 18.357C118.526 18.7168 118.335 19.1735 118.335 19.7266C118.335 20.2796 118.526 20.7357 118.908 21.0942Z" fill="#1D51A3"/>
<path d="M85.7943 27.5753C86.064 27.6691 86.2759 27.8145 86.4313 28.0115C86.5866 28.2085 86.6643 28.4378 86.6643 28.6988C86.6643 29.0791 86.5015 29.3854 86.1765 29.6184C85.8509 29.8508 85.4227 29.967 84.8908 29.967H83.1391V25.3924H84.8144C85.8969 25.3924 86.4393 25.7981 86.4418 26.609C86.4418 27.0422 86.2256 27.364 85.7937 27.5747L85.7943 27.5753ZM84.884 25.8429H83.6754V27.4069H84.884C85.2071 27.4069 85.4563 27.3386 85.6322 27.2025C85.808 27.0664 85.8962 26.8731 85.8962 26.6233C85.8987 26.1032 85.5613 25.8429 84.884 25.8429ZM84.8915 29.5171C85.7117 29.5171 86.1224 29.235 86.1224 28.6714C86.1224 28.4123 86.023 28.2054 85.8242 28.0513C85.6253 27.8966 85.3618 27.8195 85.0338 27.8195H83.6754V29.5171H84.8915Z" fill="#1D51A3"/>
<path d="M91.8603 26.7159C91.8603 27.0434 91.769 27.3156 91.5857 27.5324C91.4024 27.7487 91.1308 27.8941 90.7716 27.9674L91.8603 29.9266L91.8386 29.9676H91.3104L90.236 28.0326H88.8708V29.9676H88.3358V25.393H90.1527C90.7039 25.393 91.1265 25.5092 91.4197 25.7416C91.7137 25.974 91.8603 26.299 91.8603 26.7159ZM88.8708 25.8429V27.5958H90.2944C90.6126 27.5958 90.8611 27.5132 91.0407 27.3485C91.2203 27.1838 91.3104 26.9719 91.3104 26.7141C91.3104 26.4562 91.2203 26.2468 91.0407 26.0852C90.8611 25.9237 90.6119 25.8429 90.2944 25.8429H88.8708Z" fill="#1D51A3"/>
<path d="M95.4544 25.393L97.6902 29.9266L97.6684 29.9676H97.1403L96.6375 28.933H94.0047L93.4983 29.9676H92.985L92.9633 29.9266L95.2133 25.393H95.4538H95.4544ZM94.2235 28.4825H96.4157L95.327 26.2207L94.2235 28.4825Z" fill="#1D51A3"/>
<path d="M100.432 30.0534C100.053 30.0534 99.6942 29.9732 99.3555 29.8129C99.0168 29.6526 98.7434 29.427 98.5346 29.1356V29.0946L98.8808 28.8125H98.9242C99.1138 29.0554 99.3412 29.245 99.6072 29.3811C99.8731 29.5171 100.137 29.5855 100.399 29.5855C100.751 29.5855 101.031 29.5115 101.239 29.3637C101.446 29.2158 101.55 29.0275 101.55 28.7982C101.55 28.6677 101.525 28.5552 101.476 28.4614C101.426 28.3676 101.338 28.2837 101.213 28.2104C101.089 28.137 100.98 28.0817 100.89 28.0451C100.799 28.0084 100.647 27.9568 100.436 27.8903C100.225 27.8239 100.069 27.7723 99.97 27.7356C99.8004 27.6735 99.6643 27.6182 99.5624 27.5691C99.4605 27.52 99.3406 27.4485 99.2039 27.3541C99.0665 27.2603 98.9634 27.1441 98.8944 27.0055C98.8254 26.8669 98.7906 26.7091 98.7906 26.5326C98.7906 26.1753 98.9373 25.8814 99.2312 25.6509C99.5251 25.4203 99.9073 25.3054 100.378 25.3054C101.065 25.3054 101.598 25.5403 101.977 26.01V26.051L101.645 26.34H101.602C101.279 25.9597 100.871 25.7695 100.378 25.7695C100.075 25.7695 99.8265 25.8354 99.6339 25.9671C99.4406 26.0989 99.3443 26.2704 99.3443 26.481C99.3443 26.6917 99.4201 26.8445 99.5717 26.9539C99.7234 27.0627 99.9607 27.1733 100.284 27.2857C100.349 27.3087 100.452 27.3435 100.59 27.3907C100.728 27.438 100.836 27.474 100.912 27.4989C100.988 27.5243 101.088 27.5623 101.21 27.6138C101.333 27.6654 101.43 27.7132 101.502 27.758C101.573 27.8027 101.652 27.8618 101.737 27.9351C101.822 28.0084 101.888 28.0824 101.935 28.1569C101.982 28.2315 102.022 28.3228 102.053 28.4322C102.085 28.5409 102.1 28.6559 102.1 28.7777C102.1 29.1623 101.947 29.4712 101.64 29.7042C101.333 29.9366 100.93 30.0528 100.432 30.0528L100.432 30.0534Z" fill="#1D51A3"/>
<path d="M103.726 25.393H104.261V29.9676H103.726V25.393Z" fill="#1D51A3"/>
<path d="M109.218 29.5171V29.9676H106.275V25.393H106.81V29.5171H109.217H109.218Z" fill="#1D51A3"/>
<path d="M113.856 25.8429H111.172V27.4342H113.314V27.8848H111.172V29.5171H113.856V29.9676H110.637V25.393H113.856V25.8435V25.8429Z" fill="#1D51A3"/>
<path d="M115.505 25.393H116.04V29.9676H115.505V25.393Z" fill="#1D51A3"/>
<path d="M121.579 26.7159C121.579 27.0434 121.487 27.3156 121.304 27.5324C121.121 27.7487 120.849 27.8941 120.49 27.9674L121.579 29.9266L121.557 29.9676H121.029L119.954 28.0326H118.589V29.9676H118.054V25.393H119.871C120.422 25.393 120.845 25.5092 121.138 25.7416C121.432 25.974 121.579 26.299 121.579 26.7159ZM118.589 25.8429V27.5958H120.013C120.331 27.5958 120.58 27.5132 120.759 27.3485C120.939 27.1838 121.029 26.9719 121.029 26.7141C121.029 26.4562 120.939 26.2468 120.759 26.0852C120.58 25.9237 120.33 25.8429 120.013 25.8429H118.589Z" fill="#1D51A3"/>
<path d="M127.294 29.373C126.805 29.8266 126.197 30.0534 125.471 30.0534C124.745 30.0534 124.137 29.8266 123.647 29.373C123.156 28.9194 122.911 28.3545 122.911 27.6784C122.911 27.0024 123.156 26.4382 123.647 25.9858C124.137 25.5334 124.745 25.3072 125.471 25.3072C126.197 25.3072 126.805 25.5334 127.294 25.9858C127.783 26.4382 128.028 27.0024 128.028 27.6784C128.028 28.3545 127.783 28.9194 127.294 29.373ZM124.031 29.048C124.413 29.4065 124.893 29.5861 125.469 29.5861C126.046 29.5861 126.526 29.4071 126.91 29.048C127.293 28.6894 127.485 28.2333 127.485 27.6803C127.485 27.1273 127.293 26.6706 126.91 26.3108C126.526 25.951 126.046 25.7714 125.469 25.7714C124.893 25.7714 124.414 25.9516 124.031 26.3108C123.649 26.6706 123.457 27.1273 123.457 27.6803C123.457 28.2333 123.649 28.6894 124.031 29.048Z" fill="#1D51A3"/>
<path d="M133.987 25.393C134.742 25.393 135.351 25.6018 135.815 26.0187C136.279 26.4357 136.511 26.9868 136.511 27.6716C136.511 28.3564 136.28 28.9163 135.817 29.3369C135.355 29.7576 134.745 29.9676 133.987 29.9676H132.141V25.393H133.987ZM133.987 29.5171C134.584 29.5171 135.064 29.3494 135.424 29.0138C135.784 28.6783 135.965 28.2333 135.965 27.6803C135.965 27.1273 135.784 26.6824 135.424 26.3468C135.064 26.0113 134.584 25.8435 133.987 25.8435H132.676V29.5178H133.987V29.5171Z" fill="#1D51A3"/>
<path d="M141.39 25.8429H138.706V27.4342H140.847V27.8848H138.706V29.5171H141.39V29.9676H138.171V25.393H141.39V25.8435V25.8429Z" fill="#1D51A3"/>
<path d="M85.3246 38.0072C84.5888 38.0072 83.9687 37.7803 83.4641 37.3267C82.9589 36.8731 82.7066 36.3083 82.7066 35.6322C82.7066 34.9561 82.9583 34.3919 83.4623 33.9396C83.9662 33.4872 84.5913 33.261 85.3395 33.261C85.7471 33.261 86.1274 33.3405 86.4791 33.4996C86.8308 33.6587 87.1272 33.8774 87.3677 34.1546V34.2335L86.6506 34.7971H86.5704C86.2523 34.4348 85.8422 34.254 85.3395 34.254C84.9318 34.254 84.5882 34.3838 84.3092 34.6442C84.0302 34.9046 83.8904 35.2339 83.8904 35.6322C83.8904 36.0305 84.0302 36.3611 84.3092 36.6221C84.5882 36.8831 84.9318 37.0142 85.3395 37.0142C85.8422 37.0142 86.2523 36.8334 86.5704 36.4711H86.6506L87.3677 37.0347V37.1105C87.1297 37.3876 86.8352 37.6064 86.4847 37.7667C86.1336 37.927 85.7471 38.0072 85.3252 38.0072H85.3246Z" fill="#1D51A3"/>
<path d="M90.9829 38.0072C90.223 38.0072 89.5898 37.7816 89.0821 37.3298C88.5744 36.8787 88.3209 36.3126 88.3209 35.6322C88.3209 34.9518 88.5738 34.3863 89.0802 33.9358C89.5867 33.4853 90.2205 33.2604 90.9829 33.2604C91.7454 33.2604 92.3692 33.4866 92.8763 33.9389C93.3833 34.3913 93.6375 34.9555 93.6375 35.6316C93.6375 36.3077 93.384 36.8725 92.8763 37.3261C92.3686 37.7797 91.7379 38.0065 90.9829 38.0065V38.0072ZM89.9377 36.6221C90.2217 36.8831 90.5703 37.0142 90.9829 37.0142C91.3955 37.0142 91.7435 36.8837 92.0262 36.6221C92.309 36.3611 92.4506 36.0311 92.4506 35.6322C92.4506 35.2333 92.309 34.9039 92.0262 34.6442C91.7435 34.3845 91.3955 34.254 90.9829 34.254C90.5703 34.254 90.2217 34.3838 89.9377 34.6442C89.6538 34.9046 89.5115 35.2339 89.5115 35.6322C89.5115 36.0305 89.6538 36.3611 89.9377 36.6221Z" fill="#1D51A3"/>
<path d="M97.2745 33.3467L99.5028 37.8356L99.4518 37.9214H98.2755L97.9226 37.1204H95.8726L95.516 37.9214H94.3801L94.3291 37.8356L96.5686 33.3467H97.2751H97.2745ZM96.215 36.3574H97.5951L96.9178 34.8039L96.215 36.3574Z" fill="#1D51A3"/>
<path d="M102.823 38.0072C102.088 38.0072 101.468 37.7803 100.963 37.3267C100.458 36.8731 100.206 36.3083 100.206 35.6322C100.206 34.9561 100.457 34.3919 100.961 33.9396C101.465 33.4872 102.09 33.261 102.838 33.261C103.246 33.261 103.626 33.3405 103.978 33.4996C104.33 33.6587 104.626 33.8774 104.867 34.1546V34.2335L104.149 34.7971H104.069C103.751 34.4348 103.341 34.254 102.838 34.254C102.431 34.254 102.087 34.3838 101.808 34.6442C101.529 34.9046 101.389 35.2339 101.389 35.6322C101.389 36.0305 101.529 36.3611 101.808 36.6221C102.087 36.8831 102.431 37.0142 102.838 37.0142C103.341 37.0142 103.751 36.8334 104.069 36.4711H104.149L104.867 37.0347V37.1105C104.629 37.3876 104.334 37.6064 103.984 37.7667C103.633 37.927 103.246 38.0072 102.824 38.0072H102.823Z" fill="#1D51A3"/>
<path d="M109.374 33.3467H110.539V37.9214H109.374V36.0827H107.353V37.9214H106.192V33.3467H107.353V35.1823H109.374V33.3467Z" fill="#1D51A3"/>
<path d="M112.262 33.3467H113.423V37.9214H112.262V33.3467Z" fill="#1D51A3"/>
<path d="M118.328 33.3467H119.493V37.9419H118.768L116.307 35.2196V37.9208H115.152V33.3461H115.873L118.328 36.0684V33.3461V33.3467Z" fill="#1D51A3"/>
<path d="M125.999 35.3501C126.009 35.4209 126.014 35.5346 126.014 35.6906C126.014 36.3437 125.773 36.8899 125.293 37.3298C124.805 37.781 124.2 38.0072 123.48 38.0072C122.759 38.0072 122.141 37.7816 121.657 37.3298C121.173 36.8787 120.931 36.3126 120.931 35.6322C120.931 34.9518 121.177 34.3863 121.668 33.9358C122.16 33.4853 122.766 33.2604 123.487 33.2604C123.895 33.2604 124.276 33.3387 124.629 33.4959C124.982 33.6531 125.275 33.8675 125.508 34.1403V34.226L124.794 34.7964H124.703C124.395 34.4342 123.999 34.2533 123.516 34.2533C123.123 34.2533 122.791 34.3832 122.52 34.6436C122.249 34.9039 122.114 35.2351 122.114 35.6384C122.114 36.0417 122.249 36.3661 122.518 36.6246C122.788 36.8837 123.129 37.0129 123.542 37.0129C123.911 37.0129 124.218 36.9073 124.463 36.6966C124.657 36.527 124.778 36.3257 124.824 36.092H123.524V35.2811H125.912L126 35.3501H125.999Z" fill="#1D51A3"/>
<path d="M75.9478 39.5836C75.7757 36.1411 73.2287 33.6885 69.7874 33.6028C69.0492 33.5841 68.3097 33.5997 67.5734 33.5574C64.0253 33.3548 61.6031 30.3156 61.8952 27.3448C61.92 27.0906 61.8983 26.8315 61.8983 26.5749C62.3183 24.679 63.0298 23.7861 63.0298 23.7861C64.3354 22.6061 65.7652 21.7858 67.5237 21.6808C68.3464 21.6317 69.1722 21.6466 69.9962 21.6218C72.8776 21.5342 75.2301 19.7067 75.7173 16.8756C76.0081 15.1842 75.9149 13.422 75.9298 11.6914C75.9329 11.3496 75.6415 11.006 75.4725 10.6332H73.4983H73.4157H70.5393C70.5374 10.6363 70.5362 10.6394 70.5343 10.6431L66.0156 10.6587C58.6254 10.965 50.7854 17.213 50.3044 26.719C49.7961 36.765 57.4852 43.2964 63.8022 44.2086C65.4545 44.5709 70.8258 44.6821 71.1601 44.6883C71.1706 44.6889 71.1762 44.6889 71.1762 44.6889C72.5569 44.7088 73.9377 44.6995 75.0984 44.6995C75.8099 44.2552 75.9715 43.7935 75.9652 43.2318C75.9522 42.0164 76.0075 40.7978 75.9472 39.5849L75.9478 39.5836Z" fill="#1D51A3"/>
<path d="M68.7553 44.7001H71.1824C71.1408 44.692 71.1023 44.6833 71.0731 44.6765C71.0445 44.6709 71.0246 44.6666 71.0209 44.6653C70.868 44.6262 70.7133 44.5423 70.5778 44.4615C67.3286 42.5246 64.4335 40.2156 62.6396 36.7774C60.9724 33.5829 60.9519 30.2585 61.8206 26.8707V26.8682L63.0298 23.7861C65.1947 19.1872 68.3203 15.1662 70.5405 10.6319L70.5486 10.6164H66.0634L66.0168 10.6574C63.7127 13.5612 61.111 15.91 58.4055 18.1576C57.3721 19.0163 56.3462 19.8968 55.4129 20.8612C51.9909 24.3969 50.9886 28.9417 52.4749 33.2007C52.8875 34.3845 53.4934 35.5465 54.2925 36.6587C56.4444 39.652 59.3189 41.7802 62.5215 43.5127C62.8819 43.7078 63.2417 43.9029 63.8028 44.2074C63.8028 44.2074 64.3223 44.4963 64.7567 44.7001H67.7959C68.1072 44.7163 68.4259 44.7163 68.7553 44.7001Z" fill="white"/>
<path d="M66.9352 10.6164H69.8365C68.8821 12.2656 68.0059 13.801 67.1086 15.3247C65.5241 18.0146 63.8861 20.6748 62.3475 23.3909C61.2197 25.3824 60.7096 27.5747 60.5629 29.8595C60.3237 33.5916 61.4285 36.8738 63.7892 39.7539C65.1506 41.4149 66.7905 42.7602 68.5403 43.9837C68.8112 44.1732 69.0834 44.3596 69.4929 44.6423C67.8207 44.8244 66.4313 44.6697 65.0487 44.016C62.2854 42.7098 59.6538 41.2222 57.3864 39.1499C55.8335 37.7313 54.5286 36.1181 53.6344 34.2018C51.5714 29.7831 52.4476 24.8741 55.9646 21.226C56.596 20.571 57.2739 19.9534 57.9786 19.3773C61.2116 16.7346 64.3142 13.9601 66.9359 10.6164H66.9352Z" fill="#1D51A3"/>
<path d="M17.2733 29.9652C17.2758 30.4051 17.2783 30.845 17.2827 31.2844C17.2895 31.9741 17.3852 32.6725 17.5238 33.3492C18.9523 40.3287 24.9543 45.0549 32.0717 44.7672C36.9657 44.5696 40.7866 42.4103 43.4735 38.2992C44.7921 36.2816 44.9767 34.0819 44.3764 31.7989C44.1664 30.9998 43.7569 30.2895 42.9696 29.6613C43.7401 35.1898 38.3266 39.2431 33.3797 37.469C30.4865 36.4313 28.5608 33.7886 28.4676 30.6114C28.4608 30.3858 28.4571 30.1609 28.4533 29.9353V27.6816C28.4571 27.2224 28.4602 26.7607 28.4602 26.2946C28.4577 26.2946 28.4558 26.294 28.4533 26.2934V8.22406L28.4508 8.22281C28.4434 7.3218 28.4185 6.42576 28.362 5.53096C28.1607 2.31715 25.5981 0.0882302 22.3724 0.0149065C21.2459 -0.0105704 20.1187 0.00247875 18.9921 0.0111782C17.5604 0.0223632 17.2392 0.333678 17.2305 1.77281C17.2255 2.58434 17.2305 3.39588 17.2348 4.20741L17.205 4.19684" fill="#1D51A3"/>
<path d="M45.5769 27.7928C45.5241 27.2758 45.4477 26.7762 45.3501 26.2928H45.3513C44.0694 16.2219 28.454 14.3068 28.454 14.3068L28.4005 14.2956C26.0225 13.8899 23.8159 13.3033 21.6653 12.5265C20.6518 12.1605 19.665 11.697 18.7168 11.185C17.73 10.6524 17.2056 9.84153 17.2056 8.66151V22.7142L17.2715 22.7558V22.7527C17.2889 22.7645 17.3063 22.7763 17.3237 22.7881C20.6829 25.0748 24.5473 25.5856 28.454 26.2934C28.454 26.2934 40.9053 27.8618 42.9702 29.6619C45.0351 31.4621 44.7691 34.6945 44.5846 35.5396C44.5846 35.5396 45.1382 34.9972 45.3824 33.4375C45.7925 31.5161 45.7677 29.665 45.5769 27.7928Z" fill="white"/>
<path d="M45.3824 33.4375C45.2395 29.7141 42.7589 28.0898 39.606 27.3181C37.0011 26.6805 34.3217 26.3263 31.6603 25.951C28.0936 25.4477 24.4988 25.1053 21.0719 23.9073C20.2162 23.6084 19.3817 23.2219 18.5894 22.7813C18.078 22.4973 17.6617 22.0425 17.2578 21.7094V11.0961C21.3329 13.8153 26.0834 14.5026 30.7108 15.5589C33.3791 16.1679 36.0336 16.8073 38.5465 17.9326C42.8229 19.8471 45.104 23.1535 45.5769 27.7915C45.7677 29.6638 45.7925 31.5149 45.3824 33.4362V33.4375Z" fill="#1D51A3"/>
<path d="M11.2067 16.6842C11.1918 16.0542 11.1023 15.416 10.8929 14.7903C10.1423 12.5483 8.61119 11.016 6.28471 10.6966C4.41869 10.4405 2.4899 10.645 0.631951 10.645C-0.0727023 11.2129 0.00248555 11.8399 0.00248555 12.4445C0.00248555 12.9466 0.00248555 13.4487 0.00248555 13.9508H0V38.1401L0.0105636 38.142C0.00869943 38.3775 0.011185 38.6074 0.0292052 38.8361C0.271546 41.9325 2.38986 44.3279 5.37997 44.6392C7.09003 44.8176 8.83365 44.6715 10.3902 44.6715C11.3155 44.1788 11.2465 43.4598 11.2465 42.7614" fill="#1D51A3"/>
<path d="M11.1539 17.9102C11.0427 17.9954 11.0079 18.0451 10.9749 18.0438C7.42807 17.9152 5.20412 19.8061 3.78052 22.8341C3.09948 24.2826 2.55452 25.795 1.92568 27.269C1.52054 28.2197 1.09178 29.1648 0.0627601 29.9291L0 29.9701V37.223H0.0236127C0.835766 37.0521 1.61374 36.9589 2.34387 36.7196C3.77866 36.2499 5.24575 35.8174 6.59292 35.1537C8.55091 34.1894 10.0006 32.6471 10.8842 30.617C10.9482 30.4697 11.0433 30.3361 11.2452 29.9838L11.2477 29.9801V17.9034L11.1539 17.9102Z" fill="white"/>
<path d="M0.0677338 36.317V30.7419C1.7169 29.8042 2.35258 28.0413 3.07711 26.3164C3.73081 24.7598 4.35904 23.1728 5.20847 21.7225C6.48605 19.5414 8.52109 18.6404 10.9998 18.7889C11.0936 18.9001 11.1968 18.966 11.1962 19.03C11.1558 21.8492 11.2627 24.6815 11.0184 27.4833C10.7165 30.9544 8.78642 33.4282 5.63599 34.9276C3.92717 35.741 1.69453 36.2971 0.0677338 36.317Z" fill="#1D51A3"/>
</svg>
